<svg width="15.000000" height="15.000000" viewBox="0 0 15 15" fill="none" xmlns="http://www.w3.org/2000/svg" xmlns:xlink="http://www.w3.org/1999/xlink">
	<desc>
			Created with Pixso.
	</desc>
	<defs/>
	<path id="Vector" d="M7.5 0C3.35 0 0 3.35 0 7.5C0 11.64 3.35 15 7.5 15C11.64 15 15 11.64 15 7.5C15 3.35 11.64 0 7.5 0ZM7.5 2.27C7.75 2.27 7.95 2.47 7.95 2.72L7.95 7.23L11.47 9.26C11.68 9.39 11.75 9.66 11.63 9.88C11.5 10.1 11.23 10.17 11.01 10.04C9.76 9.33 8.51 8.6 7.27 7.89C7.13 7.81 7.04 7.66 7.04 7.49L7.04 2.72C7.04 2.47 7.24 2.27 7.49 2.27L7.5 2.27Z" fill="#FFFFFF" fill-opacity="1.000000" fill-rule="nonzero"/>
</svg>
