<svg width="22.000000" height="22.000000" viewBox="0 0 22 22" fill="none" xmlns="http://www.w3.org/2000/svg" xmlns:xlink="http://www.w3.org/1999/xlink">
	<desc>
			Created with Pixso.
	</desc>
	<defs/>
	<path id="Vector" d="M11 0C4.92 0 0 4.92 0 11C0 17.07 4.92 22 11 22C17.07 22 22 17.07 22 11C22 4.92 17.07 0 11 0ZM11 3.33C11.36 3.33 11.66 3.63 11.66 4L11.66 10.61L16.82 13.59C17.14 13.77 17.24 14.18 17.06 14.49C16.87 14.81 16.47 14.92 16.15 14.73C14.32 13.68 12.48 12.62 10.66 11.57C10.46 11.45 10.33 11.24 10.33 10.99L10.33 3.99C10.33 3.63 10.63 3.33 10.99 3.33L11 3.33Z" fill="#FFC501" fill-opacity="1.000000" fill-rule="nonzero"/>
</svg>
