<svg width="18.000000" height="18.000000" viewBox="0 0 18 18" fill="none" xmlns="http://www.w3.org/2000/svg" xmlns:xlink="http://www.w3.org/1999/xlink">
	<desc>
			Created with Pixso.
	</desc>
	<defs>
		<clipPath id="clip1_657">
			<rect id="email (1) 2" rx="-0.017578" width="17.964844" height="17.964844" transform="translate(0.017578 0.017578)" fill="white" fill-opacity="0"/>
		</clipPath>
	</defs>
	<rect id="email (1) 2" rx="-0.017578" width="17.964844" height="17.964844" transform="translate(0.017578 0.017578)" fill="#FFFFFF" fill-opacity="0"/>
	<g clip-path="url(#clip1_657)">
		<path id="Vector" d="M11.66 9.74L10.15 11.26C9.54 11.87 8.46 11.88 7.84 11.26L6.33 9.74L0.92 15.17C1.12 15.27 1.34 15.32 1.58 15.32L16.41 15.32C16.65 15.32 16.87 15.27 17.07 15.17L11.66 9.74Z" fill="#FFFFFF" fill-opacity="1.000000" fill-rule="nonzero"/>
		<path id="Vector" d="M16.41 2.67L1.58 2.67C1.34 2.67 1.12 2.72 0.92 2.81L6.7 8.62C6.7 8.62 6.7 8.62 6.7 8.62C6.7 8.62 6.7 8.62 6.7 8.62L8.59 10.51C8.79 10.71 9.2 10.71 9.4 10.51L11.29 8.62C11.29 8.62 11.29 8.62 11.29 8.62C11.29 8.62 11.29 8.62 11.29 8.62L17.07 2.81C16.87 2.72 16.65 2.67 16.41 2.67Z" fill="#FFFFFF" fill-opacity="1.000000" fill-rule="nonzero"/>
		<path id="Vector" d="M0.16 3.55C0.06 3.76 -0.01 4 -0.01 4.25L-0.01 13.74C-0.01 13.99 0.06 14.23 0.16 14.44L5.59 8.99L0.16 3.55Z" fill="#FFFFFF" fill-opacity="1.000000" fill-rule="nonzero"/>
		<path id="Vector" d="M17.83 3.55L12.4 8.99L17.83 14.44C17.93 14.23 17.99 13.99 17.99 13.74L17.99 4.25C17.99 4 17.93 3.76 17.83 3.55Z" fill="#FFFFFF" fill-opacity="1.000000" fill-rule="nonzero"/>
	</g>
</svg>
