<svg width="22.375122" height="22.375244" viewBox="0 0 22.3751 22.3752" fill="none" xmlns="http://www.w3.org/2000/svg" xmlns:xlink="http://www.w3.org/1999/xlink">
	<desc>
			Created with Pixso.
	</desc>
	<defs>
		<clipPath id="clip1_275">
			<rect id="email (1) 1" width="22.375149" height="22.375149" fill="white" fill-opacity="0"/>
		</clipPath>
	</defs>
	<rect id="email (1) 1" width="22.375149" height="22.375149" fill="#FFC501" fill-opacity="0"/>
	<g clip-path="url(#clip1_275)">
		<path id="Vector" d="M14.49 12.11L12.62 13.99C11.86 14.76 10.52 14.77 9.75 13.99L7.87 12.11L1.14 18.86C1.39 18.98 1.67 19.05 1.96 19.05L20.4 19.05C20.7 19.05 20.97 18.98 21.22 18.86L14.49 12.11Z" fill="#FFC501" fill-opacity="1.000000" fill-rule="nonzero"/>
		<path id="Vector" d="M20.4 3.31L1.96 3.31C1.67 3.31 1.39 3.38 1.14 3.5L8.33 10.72C8.33 10.72 8.33 10.72 8.33 10.72C8.33 10.72 8.33 10.72 8.33 10.72L10.67 13.06C10.92 13.31 11.44 13.31 11.69 13.06L14.03 10.72C14.03 10.72 14.03 10.72 14.03 10.72C14.03 10.72 14.03 10.72 14.03 10.72L21.22 3.5C20.97 3.38 20.7 3.31 20.4 3.31Z" fill="#FFC501" fill-opacity="1.000000" fill-rule="nonzero"/>
		<path id="Vector" d="M0.2 4.42C0.07 4.68 -0.01 4.97 -0.01 5.28L-0.01 17.08C-0.01 17.39 0.07 17.68 0.2 17.95L6.95 11.18L0.2 4.42Z" fill="#FFC501" fill-opacity="1.000000" fill-rule="nonzero"/>
		<path id="Vector" d="M22.16 4.42L15.42 11.18L22.16 17.95C22.29 17.68 22.37 17.39 22.37 17.08L22.37 5.28C22.37 4.97 22.29 4.68 22.16 4.42Z" fill="#FFC501" fill-opacity="1.000000" fill-rule="nonzero"/>
	</g>
</svg>
