<svg width="12.000000" height="12.000000" viewBox="0 0 12 12" fill="none" xmlns="http://www.w3.org/2000/svg" xmlns:xlink="http://www.w3.org/1999/xlink">
	<desc>
			Created with Pixso.
	</desc>
	<defs/>
	<rect id="noun-lock-4652243 1" rx="-0.008571" width="11.982857" height="11.982857" transform="translate(0.008571 0.008571)" fill="#FFFFFF" fill-opacity="0"/>
	<path id="Vector" d="M2.79 11.62L9.21 11.62C9.53 11.62 9.84 11.49 10.07 11.27C10.29 11.04 10.42 10.73 10.42 10.41L10.42 6C10.42 5.68 10.29 5.37 10.07 5.15C9.84 4.92 9.53 4.79 9.21 4.79L8.81 4.79L8.81 3.19C8.81 2.18 8.28 1.26 7.41 0.75C6.54 0.25 5.47 0.25 4.6 0.75C3.73 1.26 3.19 2.18 3.19 3.19L3.19 4.79L2.79 4.79C2.47 4.79 2.17 4.92 1.94 5.15C1.71 5.37 1.59 5.68 1.59 6L1.59 10.41C1.59 10.73 1.71 11.04 1.94 11.27C2.17 11.49 2.47 11.62 2.79 11.62ZM6.3 8.81C6.3 8.97 6.17 9.11 6 9.11C5.84 9.11 5.7 8.97 5.7 8.81L5.7 7.6C5.7 7.44 5.84 7.3 6 7.3C6.17 7.3 6.3 7.44 6.3 7.6L6.3 8.81ZM4 3.19C4 2.47 4.38 1.81 5 1.45C5.62 1.09 6.39 1.09 7.01 1.45C7.63 1.81 8.01 2.47 8.01 3.19L8.01 4.79L4 4.79L4 3.19Z" fill="#312C21" fill-opacity="1.000000" fill-rule="nonzero"/>
</svg>
