<svg width="20.000000" height="20.000000" viewBox="0 0 20 20" fill="none" xmlns="http://www.w3.org/2000/svg" xmlns:xlink="http://www.w3.org/1999/xlink">
	<desc>
			Created with Pixso.
	</desc>
	<defs>
		<clipPath id="clip1_548">
			<rect id="callback 1" rx="-0.019135" width="19.961729" height="19.961729" transform="translate(0.019135 0.019135)" fill="white" fill-opacity="0"/>
		</clipPath>
	</defs>
	<rect id="callback 1" rx="-0.019135" width="19.961729" height="19.961729" transform="translate(0.019135 0.019135)" fill="#FFFFFF" fill-opacity="0"/>
	<g clip-path="url(#clip1_548)">
		<path id="Vector" d="M12.55 18.96C11.96 18.96 11.38 18.79 10.88 18.47C6.54 15.69 2.91 11.85 0.39 7.35C-0.29 6.14 -0.08 4.61 0.91 3.62L2.84 1.69C3.6 0.93 4.83 0.93 5.59 1.69L7.29 3.39C8.05 4.15 8.05 5.38 7.29 6.14L6.28 7.15C7.73 9.17 9.45 10.96 11.41 12.48L12.52 11.37C13.28 10.61 14.51 10.61 15.27 11.37L16.97 13.07C17.73 13.83 17.73 15.06 16.97 15.82L14.77 18.04C14.27 18.54 13.61 18.86 12.9 18.94C12.79 18.95 12.67 18.96 12.55 18.96Z" fill="#312C21" fill-opacity="1.000000" fill-rule="nonzero"/>
		<path id="Vector" d="M17.92 2L11.86 2C12.02 1.82 12.06 1.55 11.93 1.33C11.77 1.05 11.41 0.95 11.13 1.11L9.45 2.08C9.27 2.19 9.16 2.38 9.16 2.59C9.16 2.8 9.27 2.99 9.45 3.1L11.13 4.07C11.22 4.12 11.32 4.14 11.42 4.14C11.62 4.14 11.82 4.04 11.93 3.85C12.06 3.63 12.02 3.36 11.86 3.18L17.92 3.18C18.42 3.18 18.82 3.58 18.82 4.08C18.82 4.57 18.42 4.97 17.92 4.97L13.11 4.97C12.79 4.97 12.52 5.24 12.52 5.56C12.52 5.89 12.79 6.15 13.11 6.15L17.92 6.15C19.06 6.15 19.99 5.22 19.99 4.08C19.99 2.93 19.06 2 17.92 2Z" fill="#312C21" fill-opacity="1.000000" fill-rule="nonzero"/>
	</g>
</svg>
