<svg width="25.581055" height="25.635010" viewBox="0 0 25.5811 25.635" fill="none" xmlns="http://www.w3.org/2000/svg" xmlns:xlink="http://www.w3.org/1999/xlink">
	<desc>
			Created with Pixso.
	</desc>
	<defs/>
	<path id="Vector" d="M24.91 18.81L21.33 15.23C20.05 13.95 17.88 14.46 17.37 16.13C16.98 17.28 15.71 17.91 14.56 17.66C12 17.02 8.55 13.7 7.91 11.01C7.53 9.86 8.3 8.59 9.45 8.2C11.11 7.69 11.62 5.52 10.34 4.24L6.76 0.67C5.74 -0.23 4.21 -0.23 3.31 0.67L0.89 3.09C-1.54 5.65 1.14 12.42 7.15 18.43C13.15 24.43 19.92 27.24 22.48 24.69L24.91 22.26C25.8 21.24 25.8 19.7 24.91 18.81Z" fill="#FFFFFF" fill-opacity="1.000000" fill-rule="nonzero"/>
</svg>
