<svg width="10.579956" height="14.606689" viewBox="0 0 10.58 14.6067" fill="none" xmlns="http://www.w3.org/2000/svg" xmlns:xlink="http://www.w3.org/1999/xlink">
	<desc>
			Created with Pixso.
	</desc>
	<defs/>
	<path id="Vector" d="M5.29 0C2.37 0 0 2.37 0 5.29C0 8.9 4.73 14.22 4.93 14.44C5.12 14.65 5.45 14.65 5.64 14.44C5.84 14.22 10.58 8.9 10.58 5.29C10.58 2.37 8.2 0 5.29 0ZM5.29 7.95C3.82 7.95 2.62 6.75 2.62 5.29C2.62 3.82 3.82 2.62 5.29 2.62C6.75 2.62 7.95 3.82 7.95 5.29C7.95 6.75 6.75 7.95 5.29 7.95Z" fill="#FFFFFF" fill-opacity="1.000000" fill-rule="nonzero"/>
</svg>
