<svg width="17.082886" height="23.584717" viewBox="0 0 17.0829 23.5847" fill="none" xmlns="http://www.w3.org/2000/svg" xmlns:xlink="http://www.w3.org/1999/xlink">
	<desc>
			Created with Pixso.
	</desc>
	<defs/>
	<path id="Vector" d="M8.54 0C3.83 0 0 3.83 0 8.54C0 14.38 7.64 22.96 7.96 23.32C8.27 23.66 8.8 23.66 9.11 23.32C9.43 22.96 17.08 14.38 17.08 8.54C17.08 3.83 13.25 0 8.54 0ZM8.54 12.83C6.17 12.83 4.24 10.91 4.24 8.54C4.24 6.17 6.17 4.24 8.54 4.24C10.91 4.24 12.83 6.17 12.83 8.54C12.83 10.91 10.91 12.83 8.54 12.83Z" fill="#FFC501" fill-opacity="1.000000" fill-rule="nonzero"/>
</svg>
